<?xml version="1.0" encoding="UTF-8" standalone="no"?>
<!-- Generator: Adobe Illustrator 19.0.0, SVG Export Plug-In . SVG Version: 6.00 Build 0)  -->

<svg
   xmlns:dc="http://purl.org/dc/elements/1.1/"
   xmlns:cc="http://creativecommons.org/ns#"
   xmlns:rdf="http://www.w3.org/1999/02/22-rdf-syntax-ns#"
   xmlns:svg="http://www.w3.org/2000/svg"
   xmlns="http://www.w3.org/2000/svg"
   xmlns:sodipodi="http://sodipodi.sourceforge.net/DTD/sodipodi-0.dtd"
   xmlns:inkscape="http://www.inkscape.org/namespaces/inkscape"
   version="1.1"
   id="Layer_1"
   x="0px"
   y="0px"
   viewBox="0 0 512 512"
   style="enable-background:new 0 0 512 512;"
   xml:space="preserve"
   inkscape:version="0.91 r13725"
   sodipodi:docname="tracker5.svg"><metadata
     id="metadata3445"><rdf:RDF><cc:Work
         rdf:about=""><dc:format>image/svg+xml</dc:format><dc:type
           rdf:resource="http://purl.org/dc/dcmitype/StillImage" /><dc:title /></cc:Work></rdf:RDF></metadata><defs
     id="defs3443"><clipPath
       clipPathUnits="userSpaceOnUse"
       id="clipPath4946"><rect
         style="fill:#28ffff;fill-opacity:1;stroke:none;stroke-opacity:1"
         id="rect4948"
         width="512"
         height="512"
         x="0"
         y="-1.1444092e-005" /></clipPath><clipPath
       clipPathUnits="userSpaceOnUse"
       id="clipPath4950"><rect
         style="fill:#28ffff;fill-opacity:1;stroke:none;stroke-opacity:1"
         id="rect4952"
         width="512"
         height="512"
         x="0"
         y="-1.1444092e-005" /></clipPath><clipPath
       clipPathUnits="userSpaceOnUse"
       id="clipPath4954"><rect
         style="fill:#28ffff;fill-opacity:1;stroke:none;stroke-opacity:1"
         id="rect4956"
         width="512"
         height="512"
         x="0"
         y="-1.1444092e-005" /></clipPath><clipPath
       clipPathUnits="userSpaceOnUse"
       id="clipPath4958"><rect
         style="fill:#28ffff;fill-opacity:1;stroke:none;stroke-opacity:1"
         id="rect4960"
         width="512"
         height="512"
         x="0"
         y="-1.1444092e-005" /></clipPath><clipPath
       clipPathUnits="userSpaceOnUse"
       id="clipPath4962"><rect
         style="fill:#28ffff;fill-opacity:1;stroke:none;stroke-opacity:1"
         id="rect4964"
         width="512"
         height="512"
         x="0"
         y="-1.1444092e-005" /></clipPath><clipPath
       clipPathUnits="userSpaceOnUse"
       id="clipPath4966"><rect
         style="fill:#28ffff;fill-opacity:1;stroke:none;stroke-opacity:1"
         id="rect4968"
         width="512"
         height="512"
         x="0"
         y="-1.1444092e-005" /></clipPath><clipPath
       clipPathUnits="userSpaceOnUse"
       id="clipPath4970"><rect
         style="fill:#28ffff;fill-opacity:1;stroke:none;stroke-opacity:1"
         id="rect4972"
         width="512"
         height="512"
         x="0"
         y="-1.1444092e-005" /></clipPath><clipPath
       clipPathUnits="userSpaceOnUse"
       id="clipPath4974"><rect
         style="fill:#28ffff;fill-opacity:1;stroke:none;stroke-opacity:1"
         id="rect4976"
         width="512"
         height="512"
         x="0"
         y="-1.1444092e-005" /></clipPath><clipPath
       clipPathUnits="userSpaceOnUse"
       id="clipPath4978"><rect
         style="fill:#28ffff;fill-opacity:1;stroke:none;stroke-opacity:1"
         id="rect4980"
         width="512"
         height="512"
         x="0"
         y="-1.1444092e-005" /></clipPath><clipPath
       clipPathUnits="userSpaceOnUse"
       id="clipPath4982"><rect
         style="fill:#28ffff;fill-opacity:1;stroke:none;stroke-opacity:1"
         id="rect4984"
         width="512"
         height="512"
         x="0"
         y="-1.1444092e-005" /></clipPath><clipPath
       clipPathUnits="userSpaceOnUse"
       id="clipPath4986"><rect
         style="fill:#28ffff;fill-opacity:1;stroke:none;stroke-opacity:1"
         id="rect4988"
         width="512"
         height="512"
         x="0"
         y="-1.1444092e-005" /></clipPath><clipPath
       clipPathUnits="userSpaceOnUse"
       id="clipPath4990"><rect
         style="fill:#28ffff;fill-opacity:1;stroke:none;stroke-opacity:1"
         id="rect4992"
         width="512"
         height="512"
         x="0"
         y="-1.1444092e-005" /></clipPath><clipPath
       clipPathUnits="userSpaceOnUse"
       id="clipPath4994"><rect
         style="fill:#28ffff;fill-opacity:1;stroke:none;stroke-opacity:1"
         id="rect4996"
         width="512"
         height="512"
         x="0"
         y="-1.1444092e-005" /></clipPath><clipPath
       clipPathUnits="userSpaceOnUse"
       id="clipPath4998"><rect
         style="fill:#28ffff;fill-opacity:1;stroke:none;stroke-opacity:1"
         id="rect5000"
         width="512"
         height="512"
         x="0"
         y="-1.1444092e-005" /></clipPath><clipPath
       clipPathUnits="userSpaceOnUse"
       id="clipPath5002"><rect
         style="fill:#28ffff;fill-opacity:1;stroke:none;stroke-opacity:1"
         id="rect5004"
         width="512"
         height="512"
         x="0"
         y="-1.1444092e-005" /></clipPath><clipPath
       clipPathUnits="userSpaceOnUse"
       id="clipPath5006"><rect
         style="fill:#28ffff;fill-opacity:1;stroke:none;stroke-opacity:1"
         id="rect5008"
         width="512"
         height="512"
         x="0"
         y="-1.1444092e-005" /></clipPath></defs><sodipodi:namedview
     pagecolor="#ffffff"
     bordercolor="#666666"
     borderopacity="1"
     objecttolerance="10"
     gridtolerance="10"
     guidetolerance="10"
     inkscape:pageopacity="0"
     inkscape:pageshadow="2"
     inkscape:window-width="1858"
     inkscape:window-height="1177"
     id="namedview3441"
     showgrid="false"
     inkscape:zoom="1.2001953"
     inkscape:cx="353.35745"
     inkscape:cy="279.60354"
     inkscape:window-x="-8"
     inkscape:window-y="-8"
     inkscape:window-maximized="1"
     inkscape:current-layer="Layer_1" /><g
     id="g3411"
     clip-path="url(#clipPath5006)" /><g
     id="g3413"
     clip-path="url(#clipPath5002)" /><g
     id="g3415"
     clip-path="url(#clipPath4998)" /><g
     id="g3417"
     clip-path="url(#clipPath4994)" /><g
     id="g3419"
     clip-path="url(#clipPath4990)" /><g
     id="g3421"
     clip-path="url(#clipPath4986)" /><g
     id="g3423"
     clip-path="url(#clipPath4982)" /><g
     id="g3425"
     clip-path="url(#clipPath4978)" /><g
     id="g3427"
     clip-path="url(#clipPath4974)" /><g
     id="g3429"
     clip-path="url(#clipPath4970)" /><g
     id="g3431"
     clip-path="url(#clipPath4966)" /><g
     id="g3433"
     clip-path="url(#clipPath4962)" /><g
     id="g3435"
     clip-path="url(#clipPath4958)" /><g
     id="g3437"
     clip-path="url(#clipPath4954)" /><g
     id="g3439"
     clip-path="url(#clipPath4950)" /><g
     id="g4223"
     clip-path="url(#clipPath4946)"><g
       transform="matrix(1.0312495,0,0,1.0312495,82.484375,-7.9997565)"
       id="g5706"><path
         style="fill:#f9eac7"
         inkscape:connector-curvature="0"
         d="M 184.35156,7.5 108.19922,174.50391 154.96094,225.26953 296.57812,7.5 Z m 0,0"
         id="path5676" /><path
         style="fill:#f4dbb3"
         inkscape:connector-curvature="0"
         d="m 214.0625,7.5 -29.71094,0 -76.15234,167.00391 19.87109,21.57421 z m 0,0"
         id="path5678" /><path
         style="fill:#f6d190"
         inkscape:connector-curvature="0"
         d="m 72.128906,199.88672 75.464844,75.46484 c 3.00781,3.00781 7.08594,4.69531 11.33594,4.69531 l 81.53515,0 0,-16.03125 c 0,-8.85546 -7.17578,-16.03125 -16.03125,-16.03125 l -32.48047,0 c -4.80859,0 -9.36328,-2.16015 -12.41015,-5.8789 l -61.72266,-75.44141 c -3.0039,-3.67187 -8.51953,-3.94922 -11.875,-0.59375 z m 0,0"
         id="path5680" /><path
         style="fill:#dad8db"
         inkscape:connector-curvature="0"
         d="m 416.82031,215.91797 -120.24219,0 c -8.85546,0 -16.03125,7.17969 -16.03125,16.03515 l 0,80.16016 -120.24218,0 c -8.85547,0 -16.03125,7.17578 -16.03125,16.03125 l 0,80.16016 -120.24219,0 C 15.175781,408.30469 8,415.48438 8,424.33594 l 0,80.16015 136.27344,0 c 150.52343,0 272.54687,-122.02343 272.54687,-272.54687 z m 0,0"
         id="path5682" /><path
         style="fill:#ecbd83"
         inkscape:connector-curvature="0"
         d="m 240.46484,304.09766 0,-40.08204 -69.10937,0 c -7.95703,0 -15.58594,-3.16015 -21.21094,-8.78515 L 83.464844,188.55078 59.417969,212.59766 c -4.332031,4.33203 -5.59375,10.51171 -3.929688,15.99218 l 69.433599,69.4336 c 9.08593,9.08593 21.16406,14.08984 34.00781,14.08984 l 73.51953,0 c 4.42578,0 8.01562,-3.58984 8.01562,-8.01562 z m 0,0"
         id="path5684" /><path
         style="fill:#c8c5c9"
         inkscape:connector-curvature="0"
         d="m 416.82031,215.91797 -120.24219,0 c -8.85546,0 -16.03125,7.17969 -16.03125,16.03515 l 0,80.16016 -120.24218,0 c -8.85547,0 -16.03125,7.17578 -16.03125,16.03125 l 0,80.16016 -120.24219,0 C 15.175781,408.30469 8,415.48438 8,424.33594 l 0,80.16015 24.046875,0 0,-72.14453 112.226565,0 c 13.28125,0 24.04687,-10.76562 24.04687,-24.04687 l 0,-72.14453 112.22656,0 c 13.28125,0 24.04688,-10.76563 24.04688,-24.04688 l 0,-72.14453 112.02344,0 c 0.22656,-7.76562 0.20312,-24.05078 0.20312,-24.05078 z m 0,0"
         id="path5686" /><path
         style="fill:#eceaec"
         inkscape:connector-curvature="0"
         d="m 240.46484,304.09766 0,-24.05079 -81.53515,0 c -4.25391,0 -8.33203,-1.6875 -11.33594,-4.69531 L 72.128906,199.88672 59.417969,212.59766 c -6.261719,6.26171 -6.261719,16.41406 0,22.67187 l 62.753911,62.75391 c 9.01953,9.02343 21.2539,14.08984 34.00781,14.08984 l 76.26953,0 c 4.42969,0 8.01562,-3.58984 8.01562,-8.01562 z m 0,0"
         id="path5688" /><path
         style="fill:#6f6571"
         inkscape:connector-curvature="0"
         d="M 192.33594,167.79687 296.57812,7.5 184.35156,7.5 134.04297,117.82813 Z m 0,0"
         id="path5690" /><path
         style="fill:#5d5360"
         inkscape:connector-curvature="0"
         d="m 184.35547,7.5 -0.004,0 -50.30859,110.32813 21.35937,18.30859 L 214.0625,7.5 Z m 0,0"
         id="path5692" /><path
         style="fill:#857e87"
         inkscape:connector-curvature="0"
         d="m 148.06641,87.078125 -14.02344,30.750005 58.29297,49.96874 17.96484,-27.625 z m 0,0"
         id="path5694" /><path
         style="fill:#6f6571"
         inkscape:connector-curvature="0"
         d="m 169.45312,105.32422 -21.38671,-18.246095 -14.02344,30.750005 21.35937,18.30859 z m 0,0"
         id="path5696" /><path
         inkscape:connector-curvature="0"
         d="m 416.82031,208.41797 -120.24219,0 c -12.97656,0 -23.53125,10.55859 -23.53125,23.53515 l 0,72.66016 -25.08203,0 0,-40.59766 c 0,-12.97656 -10.55468,-23.53125 -23.53125,-23.53125 l -32.48437,0 c -2.56641,0 -4.97656,-1.14062 -6.60156,-3.1289 L 168.61719,216.91016 302.85547,11.605469 c 2.26953,-3.46875 1.29687,-8.113281 -2.17188,-10.382813 -3.46484,-2.265625 -8.11328,-1.2929685 -10.38281,2.171875 L 208.41797,128.62891 156.26953,84.308594 191.13281,10.710938 c 1.76953,-3.742188 0.17578,-8.214844 -3.57031,-9.988282 -3.73828,-1.769531 -8.21484,-0.175781 -9.98828,3.570313 l -71.58594,151.128901 -51.874999,51.875 c -9.175781,9.17579 -9.175781,24.10157 0,33.27735 l 62.753909,62.7539 c 6.44922,6.45313 14.20703,11.11329 22.67578,13.75782 -1.76563,3.29687 -2.76953,7.0625 -2.76953,11.05859 l 0,72.66406 -112.74219,0 C 11.054688,400.80859 0.5,411.36328 0.5,424.33984 L 0.5,504.5 c 0,4.14062 3.359375,7.5 7.5,7.5 4.140625,0 7.5,-3.35938 7.5,-7.5 l 0,-80.16016 c 0,-4.70703 3.828125,-8.53515 8.53125,-8.53515 l 120.24219,0 c 4.14062,0 7.5,-3.35547 7.5,-7.4961 l 0,-80.16406 c 0,-4.70312 3.82812,-8.53125 8.53125,-8.53125 l 120.24218,0 c 4.14063,0 7.5,-3.35937 7.5,-7.5 l 0,-80.16016 c 0,-4.70703 3.82813,-8.53125 8.53125,-8.53125 l 120.24219,0 c 4.14063,0 7.5,-3.35937 7.5,-7.5 0,-4.14453 -3.35937,-7.5039 -7.5,-7.5039 z m -295.80468,-49.6875 14.21484,-30.00391 46.86328,40.16797 -23.4375,35.83984 z m 79.1289,-17.44531 -9.77344,14.94531 -48.48437,-41.55859 7.73437,-16.32813 z m -43.96484,163.32812 c -10.84375,0 -21.03907,-4.22265 -28.70703,-11.89062 L 64.71875,229.96875 c -3.328125,-3.32812 -3.328125,-8.73828 0,-12.06641 l 7.410156,-7.40625 70.160154,70.16016 c 4.44531,4.44531 10.35547,6.89453 16.64063,6.89453 l 33.4375,0 c 4.14453,0 7.5,-3.35937 7.5,-7.5 0,-4.14453 -3.35547,-7.5 -7.5,-7.5 l -33.4375,0 c -2.27735,0 -4.42188,-0.89062 -6.03516,-2.5 l -70.160155,-70.16406 28.917965,-28.91406 62.08594,75.88281 c 4.48438,5.48437 11.125,8.6289 18.21094,8.6289 l 32.48437,0 c 4.70313,0 8.53125,3.82813 8.53125,8.53125 l 0,8.53516 -8.53515,0 c -4.14453,0 -7.5,3.35547 -7.5,7.5 0,4.14063 3.35547,7.5 7.5,7.5 l 8.53515,0 0,17.0625 z m 0,0"
         id="path5698" /></g></g></svg>