<?xml version="1.0" encoding="UTF-8" standalone="no"?>
<!-- Generator: Adobe Illustrator 19.0.0, SVG Export Plug-In . SVG Version: 6.00 Build 0)  -->

<svg
   xmlns:dc="http://purl.org/dc/elements/1.1/"
   xmlns:cc="http://creativecommons.org/ns#"
   xmlns:rdf="http://www.w3.org/1999/02/22-rdf-syntax-ns#"
   xmlns:svg="http://www.w3.org/2000/svg"
   xmlns="http://www.w3.org/2000/svg"
   xmlns:sodipodi="http://sodipodi.sourceforge.net/DTD/sodipodi-0.dtd"
   xmlns:inkscape="http://www.inkscape.org/namespaces/inkscape"
   version="1.1"
   id="Layer_1"
   x="0px"
   y="0px"
   viewBox="0 0 512 512"
   style="enable-background:new 0 0 512 512;"
   xml:space="preserve"
   inkscape:version="0.91 r13725"
   sodipodi:docname="tracker1.svg"><metadata
     id="metadata3445"><rdf:RDF><cc:Work
         rdf:about=""><dc:format>image/svg+xml</dc:format><dc:type
           rdf:resource="http://purl.org/dc/dcmitype/StillImage" /><dc:title></dc:title></cc:Work></rdf:RDF></metadata><defs
     id="defs3443" /><sodipodi:namedview
     pagecolor="#ffffff"
     bordercolor="#666666"
     borderopacity="1"
     objecttolerance="10"
     gridtolerance="10"
     guidetolerance="10"
     inkscape:pageopacity="0"
     inkscape:pageshadow="2"
     inkscape:window-width="1920"
     inkscape:window-height="1197"
     id="namedview3441"
     showgrid="false"
     inkscape:zoom="0.84866624"
     inkscape:cx="377.00283"
     inkscape:cy="268.19169"
     inkscape:window-x="329"
     inkscape:window-y="93"
     inkscape:window-maximized="0"
     inkscape:current-layer="Layer_1" /><path
     style="fill:#ffffff;fill-opacity:1"
     d="M 256,0 C 397.385,0 512,114.61567 512,255.9985 512,397.38433 397.385,512 256,512 114.612,512 0,397.38433 0,255.9985 0,114.61567 114.615,0 256,0 Z"
     id="path3337"
     inkscape:connector-curvature="0" /><g
     id="g3411" /><g
     id="g3413" /><g
     id="g3415" /><g
     id="g3417" /><g
     id="g3419" /><g
     id="g3421" /><g
     id="g3423" /><g
     id="g3425" /><g
     id="g3427" /><g
     id="g3429" /><g
     id="g3431" /><g
     id="g3433" /><g
     id="g3435" /><g
     id="g3437" /><g
     id="g3439" /><g
     id="g5595"
     transform="matrix(0.66396321,0,0,0.66396321,84.877078,84.87723)"><g
       id="g5555"><path
         id="path5557"
         d="m 298.794,386.711 c 27.805,9.522 52.357,15.587 87.633,26.427 -13.552,171.236 -175.475,103.233 -87.633,-26.427 z M 443.366,229.409 c -1.826,-51.415 -10.882,-118.86 -83.017,-108.292 -33.815,8.825 -58.8,45.962 -70.551,110.035 -6.454,35.229 -2.701,84.678 4.912,114.32 6.951,20.889 4.587,19.605 12.058,23.572 28.916,6.514 57.542,13.725 86.693,21.078 29.614,-20.913 53.936,-131.94 49.905,-160.713 z m -222.614,-3.946 c 7.607,-29.646 11.36,-79.095 4.909,-114.32 C 213.919,47.067 188.931,9.924 155.11,1.105 82.975,-9.463 73.919,57.981 72.093,109.399 c -4.031,28.768 20.294,139.802 49.911,160.711 29.149,-7.353 57.771,-14.558 86.696,-21.078 7.462,-3.963 5.098,-2.68 12.052,-23.569 z m -91.723,67.669 c 13.547,171.234 175.47,103.231 87.63,-26.427 -27.805,9.523 -52.355,15.587 -87.63,26.427 z"
         inkscape:connector-curvature="0" /></g><g
       id="g5559" /><g
       id="g5561" /><g
       id="g5563" /><g
       id="g5565" /><g
       id="g5567" /><g
       id="g5569" /><g
       id="g5571" /><g
       id="g5573" /><g
       id="g5575" /><g
       id="g5577" /><g
       id="g5579" /><g
       id="g5581" /><g
       id="g5583" /><g
       id="g5585" /><g
       id="g5587" /></g></svg>