<?xml version="1.0" encoding="UTF-8" standalone="no"?>
<!-- Generator: Adobe Illustrator 19.0.0, SVG Export Plug-In . SVG Version: 6.00 Build 0)  -->

<svg
   xmlns:dc="http://purl.org/dc/elements/1.1/"
   xmlns:cc="http://creativecommons.org/ns#"
   xmlns:rdf="http://www.w3.org/1999/02/22-rdf-syntax-ns#"
   xmlns:svg="http://www.w3.org/2000/svg"
   xmlns="http://www.w3.org/2000/svg"
   xmlns:sodipodi="http://sodipodi.sourceforge.net/DTD/sodipodi-0.dtd"
   xmlns:inkscape="http://www.inkscape.org/namespaces/inkscape"
   version="1.1"
   id="Layer_1"
   x="0px"
   y="0px"
   viewBox="0 0 512 512"
   style="enable-background:new 0 0 512 512;"
   xml:space="preserve"
   inkscape:version="0.91 r13725"
   sodipodi:docname="tracker4.svg"><metadata
     id="metadata3445"><rdf:RDF><cc:Work
         rdf:about=""><dc:format>image/svg+xml</dc:format><dc:type
           rdf:resource="http://purl.org/dc/dcmitype/StillImage" /><dc:title></dc:title></cc:Work></rdf:RDF></metadata><defs
     id="defs3443" /><sodipodi:namedview
     pagecolor="#ffffff"
     bordercolor="#666666"
     borderopacity="1"
     objecttolerance="10"
     gridtolerance="10"
     guidetolerance="10"
     inkscape:pageopacity="0"
     inkscape:pageshadow="2"
     inkscape:window-width="1920"
     inkscape:window-height="1197"
     id="namedview3441"
     showgrid="false"
     inkscape:zoom="0.84866624"
     inkscape:cx="377.00283"
     inkscape:cy="268.19169"
     inkscape:window-x="218"
     inkscape:window-y="57"
     inkscape:window-maximized="0"
     inkscape:current-layer="Layer_1" /><path
     style="fill:#ffffff;fill-opacity:1"
     d="M 256,0 C 397.385,0 512,114.61567 512,255.9985 512,397.38433 397.385,512 256,512 114.612,512 0,397.38433 0,255.9985 0,114.61567 114.615,0 256,0 Z"
     id="path3337"
     inkscape:connector-curvature="0" /><g
     id="g3411" /><g
     id="g3413" /><g
     id="g3415" /><g
     id="g3417" /><g
     id="g3419" /><g
     id="g3421" /><g
     id="g3423" /><g
     id="g3425" /><g
     id="g3427" /><g
     id="g3429" /><g
     id="g3431" /><g
     id="g3433" /><g
     id="g3435" /><g
     id="g3437" /><g
     id="g3439" /><g
     id="g5752"
     transform="matrix(0.9375,0,0,0.9375,100.87609,16)"><path
       id="path5722"
       d="m 177.28906,9.625 -74.0625,162.41797 48.17188,52.30078 L 288.99219,12.761719 C 292.56641,7.265625 288.625,0 282.07031,0 l -89.8125,0 c -6.44531,0 -12.29687,3.761719 -14.96875,9.625 z m 0,0"
       inkscape:connector-curvature="0"
       style="fill:#f9eac7" /><path
       id="path5724"
       d="m 212.28516,0 -20.02735,0 c -6.44531,0 -12.29687,3.761719 -14.96875,9.625 l -74.0625,162.41797 20.47266,22.22656 z m 0,0"
       inkscape:connector-curvature="0"
       style="fill:#f4dbb3" /><path
       id="path5726"
       d="m 66.066406,198.19531 77.742184,77.74219 c 3.09766,3.09766 7.29688,4.83594 11.67969,4.83594 l 83.99609,0 0,-16.51563 c 0,-9.12109 -7.39453,-16.51562 -16.51562,-16.51562 l -33.46484,0 c -4.95313,0 -9.64454,-2.22266 -12.78125,-6.05469 l -63.58985,-77.71875 c -3.09375,-3.78516 -8.77343,-4.06641 -12.23047,-0.61328 L 66.0625,198.19531 Z m 0,0"
       inkscape:connector-curvature="0"
       style="fill:#f6d190" /><path
       id="path5728"
       d="m 404.64844,214.71094 -107.35547,0 c -9.125,0 -16.51563,7.39453 -16.51563,16.51562 l 0,82.58203 -123.87109,0 c -9.125,0 -16.51953,7.39453 -16.51953,16.51563 l 0,82.57812 -123.871095,0 C 7.394531,412.90234 0,420.30078 0,429.42187 l 0,66.0625 C 0,504.60547 7.394531,512 16.515625,512 l 123.871095,0 c 155.0664,0 280.77344,-125.70703 280.77344,-280.77344 0.004,-9.12109 -7.39454,-16.51562 -16.51172,-16.51562 z m 0,0"
       inkscape:connector-curvature="0"
       style="fill:#dad8db" /><path
       id="path5730"
       d="m 239.48437,305.54687 0,-41.28906 -83.99609,0 -77.742186,-77.74219 -24.777344,24.77344 c -4.460938,4.46485 -5.761719,10.82813 -4.046875,16.47266 l 71.531255,71.53125 c 9.35937,9.35937 21.80078,14.51172 35.03515,14.51172 l 75.73828,0 c 4.5625,0 8.25781,-3.69532 8.25781,-8.25782 z m 0,0"
       inkscape:connector-curvature="0"
       style="fill:#ecbd83" /><path
       id="path5732"
       d="m 404.64844,214.71094 -107.35547,0 c -9.125,0 -16.51563,7.39453 -16.51563,16.51562 l 0,82.58203 -123.87109,0 c -9.125,0 -16.51953,7.39453 -16.51953,16.51563 l 0,82.57812 -123.871095,0 C 7.394531,412.90234 0,420.30078 0,429.42187 l 0,66.0625 C 0,504.60547 7.394531,512 16.515625,512 l 8.257813,0 0,-74.32031 115.613282,0 c 13.68359,0 24.77344,-11.09375 24.77344,-24.77735 l 0,-74.32031 115.61328,0 c 13.68359,0 24.77343,-11.09375 24.77343,-24.77344 l 0,-74.32422 115.40625,0 c 0.082,-2.78125 0.21094,-5.54687 0.20704,-8.34765 -0.008,-9.08203 -7.4336,-16.42578 -16.51172,-16.42578 z m 0,0"
       inkscape:connector-curvature="0"
       style="fill:#c8c5c9" /><path
       id="path5734"
       d="m 239.48437,305.54687 0,-24.77343 -83.99609,0 c -4.38281,0 -8.58203,-1.73828 -11.67969,-4.83594 L 66.066406,198.19141 52.96875,211.28906 c -6.449219,6.44922 -6.449219,16.90625 0,23.35547 l 64.64844,64.64844 c 9.29297,9.29297 21.89453,14.51172 35.03515,14.51172 l 78.57422,0 c 4.5625,0 8.25781,-3.69532 8.25781,-8.25782 z m 0,0"
       inkscape:connector-curvature="0"
       style="fill:#eceaec" /><path
       id="path5736"
       d="m 54.386719,209.87109 77.742191,77.7461 c 6.24218,6.23828 14.53515,9.67187 23.35937,9.67187 l 83.99609,0 0,-16.51562 -83.99609,0 c -4.38281,0 -8.58203,-1.73828 -11.67969,-4.83594 L 66.066406,198.19141 Z m 0,0"
       inkscape:connector-curvature="0"
       style="fill:#dad8db" /><path
       id="path5738"
       d="M 189.90234,165.13281 288.99219,12.761719 C 292.56641,7.265625 288.625,0 282.07031,0 l -89.8125,0 c -6.44531,0 -12.29687,3.761719 -14.96875,9.625 l -47.4414,104.03125 z m 0,0"
       inkscape:connector-curvature="0"
       style="fill:#6f6571" /><path
       id="path5740"
       d="m 192.25781,0 c -6.44531,0 -12.29687,3.761719 -14.96875,9.625 l -47.4414,104.03125 22.00781,18.86328 L 212.28516,0 Z m 0,0"
       inkscape:connector-curvature="0"
       style="fill:#5d5360" /><path
       id="path5742"
       d="m 144.29687,81.980469 -14.44531,31.675781 60.05078,51.47656 18.50782,-28.45703 z m 0,0"
       inkscape:connector-curvature="0"
       style="fill:#857e87" /><path
       id="path5744"
       d="m 166.32812,100.77734 -22.03125,-18.796871 -14.44531,31.675781 22.00391,18.86328 z m 0,0"
       inkscape:connector-curvature="0"
       style="fill:#6f6571" /></g></svg>