<?xml version="1.0" encoding="UTF-8" standalone="no"?>
<!-- Generator: Adobe Illustrator 19.0.0, SVG Export Plug-In . SVG Version: 6.00 Build 0)  -->

<svg
   xmlns:dc="http://purl.org/dc/elements/1.1/"
   xmlns:cc="http://creativecommons.org/ns#"
   xmlns:rdf="http://www.w3.org/1999/02/22-rdf-syntax-ns#"
   xmlns:svg="http://www.w3.org/2000/svg"
   xmlns="http://www.w3.org/2000/svg"
   xmlns:sodipodi="http://sodipodi.sourceforge.net/DTD/sodipodi-0.dtd"
   xmlns:inkscape="http://www.inkscape.org/namespaces/inkscape"
   version="1.1"
   id="Layer_1"
   x="0px"
   y="0px"
   viewBox="0 0 512 512"
   style="enable-background:new 0 0 512 512;"
   xml:space="preserve"
   inkscape:version="0.91 r13725"
   sodipodi:docname="tracker2.svg"><metadata
     id="metadata3445"><rdf:RDF><cc:Work
         rdf:about=""><dc:format>image/svg+xml</dc:format><dc:type
           rdf:resource="http://purl.org/dc/dcmitype/StillImage" /><dc:title></dc:title></cc:Work></rdf:RDF></metadata><defs
     id="defs3443" /><sodipodi:namedview
     pagecolor="#ffffff"
     bordercolor="#666666"
     borderopacity="1"
     objecttolerance="10"
     gridtolerance="10"
     guidetolerance="10"
     inkscape:pageopacity="0"
     inkscape:pageshadow="2"
     inkscape:window-width="1920"
     inkscape:window-height="1197"
     id="namedview3441"
     showgrid="false"
     inkscape:zoom="0.84866624"
     inkscape:cx="377.00283"
     inkscape:cy="268.19169"
     inkscape:window-x="148"
     inkscape:window-y="82"
     inkscape:window-maximized="0"
     inkscape:current-layer="Layer_1" /><path
     style="fill:#ffffff;fill-opacity:1"
     d="M 256,0 C 397.385,0 512,114.61567 512,255.9985 512,397.38433 397.385,512 256,512 114.612,512 0,397.38433 0,255.9985 0,114.61567 114.615,0 256,0 Z"
     id="path3337"
     inkscape:connector-curvature="0" /><g
     id="g3411" /><g
     id="g3413" /><g
     id="g3415" /><g
     id="g3417" /><g
     id="g3419" /><g
     id="g3421" /><g
     id="g3423" /><g
     id="g3425" /><g
     id="g3427" /><g
     id="g3429" /><g
     id="g3431" /><g
     id="g3433" /><g
     id="g3435" /><g
     id="g3437" /><g
     id="g3439" /><g
     id="g5655"
     transform="matrix(23.314241,0,0,23.314241,69.987338,69.991559)"><g
       id="g5615"><path
         id="path5617"
         d="M 7.039,11.326 C 7.126,12.834 6.812,13.431 5.763,13.599 4.713,13.767 3.697,12.863 3.491,11.578 3.397,10.988 3.303,9.789 3.183,9.264 L 2.282,6.728 C 2.23,6.504 1.636,5.436 1.542,4.971 1.351,4.025 1.961,3.105 2.905,2.913 2.905,2.913 4.309,2.63 4.556,2.58 4.803,2.529 5.54,2.481 5.54,2.481 c 1.012,0 1.5,0.523 1.5,1.535 0,0.587 -1.04,1.49 -1.04,1.49 0,0 -1.472,1.417 -0.957,2.47 0.513,1.053 1.685,1.357 1.996,3.35 z M 5.864,2.222 C 6.282,2.222 6.622,1.723 6.622,1.11 6.622,0.497 6.282,0 5.864,0 5.443,0 5.103,0.498 5.103,1.11 5.104,1.723 5.443,2.222 5.864,2.222 Z M 4.249,2.109 C 4.518,2.071 4.691,1.721 4.634,1.327 4.578,0.933 4.314,0.645 4.045,0.684 3.777,0.722 3.604,1.072 3.66,1.466 3.716,1.859 3.98,2.147 4.249,2.109 Z M 3.098,2.421 C 3.293,2.375 3.396,2.107 3.329,1.823 3.261,1.539 3.049,1.345 2.855,1.391 2.661,1.437 2.557,1.704 2.625,1.989 2.692,2.273 2.903,2.467 3.098,2.421 Z M 2.167,3.031 C 2.337,2.964 2.395,2.707 2.296,2.458 2.197,2.209 1.98,2.061 1.81,2.129 1.64,2.197 1.582,2.453 1.681,2.702 1.78,2.951 1.997,3.098 2.167,3.031 Z M 1.153,3.103 C 1.04,3.147 1.001,3.317 1.066,3.483 1.131,3.648 1.276,3.746 1.389,3.702 1.502,3.658 1.541,3.487 1.476,3.322 1.41,3.156 1.266,3.058 1.153,3.103 Z m 11.938,2.405 c 0,0 -1.373,-0.403 -1.615,-0.473 C 11.234,4.963 10.504,4.852 10.504,4.852 9.495,4.766 8.965,5.246 8.879,6.254 8.827,6.837 9.786,7.826 9.786,7.826 c 0,0 1.346,1.538 0.742,2.542 -0.602,1.004 -1.795,1.209 -2.274,3.166 -0.216,1.493 0.047,2.116 1.075,2.375 1.033,0.258 2.121,-0.558 2.438,-1.818 0.145,-0.582 0.34,-1.768 0.506,-2.281 l 1.114,-2.449 c 0.071,-0.22 0.754,-1.232 0.888,-1.687 0.27,-0.925 -0.26,-1.895 -1.184,-2.166 z M 10.202,4.564 C 10.62,4.6 11.001,4.134 11.054,3.522 11.107,2.91 10.811,2.386 10.392,2.35 9.974,2.314 9.593,2.78 9.54,3.392 9.487,4.004 9.784,4.529 10.202,4.564 Z M 11.821,4.59 C 12.085,4.651 12.372,4.386 12.462,4 12.55,3.613 12.409,3.25 12.145,3.189 c -0.264,-0.061 -0.551,0.204 -0.64,0.59 -0.09,0.387 0.053,0.75 0.316,0.811 z m 1.12,0.409 C 13.13,5.061 13.357,4.887 13.449,4.61 13.541,4.333 13.461,4.057 13.272,3.995 13.083,3.933 12.855,4.107 12.763,4.384 12.671,4.661 12.751,4.937 12.941,4.999 Z m 1.308,-0.178 c -0.165,-0.082 -0.395,0.045 -0.514,0.285 -0.119,0.24 -0.083,0.5 0.082,0.582 0.164,0.082 0.395,-0.045 0.514,-0.285 0.119,-0.24 0.082,-0.501 -0.082,-0.582 z m 0.572,1.024 c -0.109,-0.054 -0.262,0.031 -0.342,0.19 -0.078,0.159 -0.055,0.333 0.055,0.387 0.109,0.055 0.262,-0.03 0.342,-0.19 C 14.955,6.073 14.931,5.9 14.821,5.845 Z"
         style="fill:#030104"
         inkscape:connector-curvature="0" /></g><g
       id="g5619" /><g
       id="g5621" /><g
       id="g5623" /><g
       id="g5625" /><g
       id="g5627" /><g
       id="g5629" /><g
       id="g5631" /><g
       id="g5633" /><g
       id="g5635" /><g
       id="g5637" /><g
       id="g5639" /><g
       id="g5641" /><g
       id="g5643" /><g
       id="g5645" /><g
       id="g5647" /></g></svg>