<?xml version="1.0" encoding="UTF-8" standalone="no"?>
<!-- Generator: Adobe Illustrator 19.0.0, SVG Export Plug-In . SVG Version: 6.00 Build 0)  -->

<svg
   xmlns:dc="http://purl.org/dc/elements/1.1/"
   xmlns:cc="http://creativecommons.org/ns#"
   xmlns:rdf="http://www.w3.org/1999/02/22-rdf-syntax-ns#"
   xmlns:svg="http://www.w3.org/2000/svg"
   xmlns="http://www.w3.org/2000/svg"
   xmlns:sodipodi="http://sodipodi.sourceforge.net/DTD/sodipodi-0.dtd"
   xmlns:inkscape="http://www.inkscape.org/namespaces/inkscape"
   version="1.1"
   id="Layer_1"
   x="0px"
   y="0px"
   viewBox="0 0 512 512"
   style="enable-background:new 0 0 512 512;"
   xml:space="preserve"
   inkscape:version="0.91 r13725"
   sodipodi:docname="tracker5.svg"><metadata
     id="metadata3445"><rdf:RDF><cc:Work
         rdf:about=""><dc:format>image/svg+xml</dc:format><dc:type
           rdf:resource="http://purl.org/dc/dcmitype/StillImage" /><dc:title /></cc:Work></rdf:RDF></metadata><defs
     id="defs3443"><clipPath
       clipPathUnits="userSpaceOnUse"
       id="clipPath4946"><rect
         style="fill:#28ffff;fill-opacity:1;stroke:none;stroke-opacity:1"
         id="rect4948"
         width="512"
         height="512"
         x="0"
         y="-1.1444092e-005" /></clipPath><clipPath
       clipPathUnits="userSpaceOnUse"
       id="clipPath4950"><rect
         style="fill:#28ffff;fill-opacity:1;stroke:none;stroke-opacity:1"
         id="rect4952"
         width="512"
         height="512"
         x="0"
         y="-1.1444092e-005" /></clipPath><clipPath
       clipPathUnits="userSpaceOnUse"
       id="clipPath4954"><rect
         style="fill:#28ffff;fill-opacity:1;stroke:none;stroke-opacity:1"
         id="rect4956"
         width="512"
         height="512"
         x="0"
         y="-1.1444092e-005" /></clipPath><clipPath
       clipPathUnits="userSpaceOnUse"
       id="clipPath4958"><rect
         style="fill:#28ffff;fill-opacity:1;stroke:none;stroke-opacity:1"
         id="rect4960"
         width="512"
         height="512"
         x="0"
         y="-1.1444092e-005" /></clipPath><clipPath
       clipPathUnits="userSpaceOnUse"
       id="clipPath4962"><rect
         style="fill:#28ffff;fill-opacity:1;stroke:none;stroke-opacity:1"
         id="rect4964"
         width="512"
         height="512"
         x="0"
         y="-1.1444092e-005" /></clipPath><clipPath
       clipPathUnits="userSpaceOnUse"
       id="clipPath4966"><rect
         style="fill:#28ffff;fill-opacity:1;stroke:none;stroke-opacity:1"
         id="rect4968"
         width="512"
         height="512"
         x="0"
         y="-1.1444092e-005" /></clipPath><clipPath
       clipPathUnits="userSpaceOnUse"
       id="clipPath4970"><rect
         style="fill:#28ffff;fill-opacity:1;stroke:none;stroke-opacity:1"
         id="rect4972"
         width="512"
         height="512"
         x="0"
         y="-1.1444092e-005" /></clipPath><clipPath
       clipPathUnits="userSpaceOnUse"
       id="clipPath4974"><rect
         style="fill:#28ffff;fill-opacity:1;stroke:none;stroke-opacity:1"
         id="rect4976"
         width="512"
         height="512"
         x="0"
         y="-1.1444092e-005" /></clipPath><clipPath
       clipPathUnits="userSpaceOnUse"
       id="clipPath4978"><rect
         style="fill:#28ffff;fill-opacity:1;stroke:none;stroke-opacity:1"
         id="rect4980"
         width="512"
         height="512"
         x="0"
         y="-1.1444092e-005" /></clipPath><clipPath
       clipPathUnits="userSpaceOnUse"
       id="clipPath4982"><rect
         style="fill:#28ffff;fill-opacity:1;stroke:none;stroke-opacity:1"
         id="rect4984"
         width="512"
         height="512"
         x="0"
         y="-1.1444092e-005" /></clipPath><clipPath
       clipPathUnits="userSpaceOnUse"
       id="clipPath4986"><rect
         style="fill:#28ffff;fill-opacity:1;stroke:none;stroke-opacity:1"
         id="rect4988"
         width="512"
         height="512"
         x="0"
         y="-1.1444092e-005" /></clipPath><clipPath
       clipPathUnits="userSpaceOnUse"
       id="clipPath4990"><rect
         style="fill:#28ffff;fill-opacity:1;stroke:none;stroke-opacity:1"
         id="rect4992"
         width="512"
         height="512"
         x="0"
         y="-1.1444092e-005" /></clipPath><clipPath
       clipPathUnits="userSpaceOnUse"
       id="clipPath4994"><rect
         style="fill:#28ffff;fill-opacity:1;stroke:none;stroke-opacity:1"
         id="rect4996"
         width="512"
         height="512"
         x="0"
         y="-1.1444092e-005" /></clipPath><clipPath
       clipPathUnits="userSpaceOnUse"
       id="clipPath4998"><rect
         style="fill:#28ffff;fill-opacity:1;stroke:none;stroke-opacity:1"
         id="rect5000"
         width="512"
         height="512"
         x="0"
         y="-1.1444092e-005" /></clipPath><clipPath
       clipPathUnits="userSpaceOnUse"
       id="clipPath5002"><rect
         style="fill:#28ffff;fill-opacity:1;stroke:none;stroke-opacity:1"
         id="rect5004"
         width="512"
         height="512"
         x="0"
         y="-1.1444092e-005" /></clipPath><clipPath
       clipPathUnits="userSpaceOnUse"
       id="clipPath5006"><rect
         style="fill:#28ffff;fill-opacity:1;stroke:none;stroke-opacity:1"
         id="rect5008"
         width="512"
         height="512"
         x="0"
         y="-1.1444092e-005" /></clipPath><clipPath
       clipPathUnits="userSpaceOnUse"
       id="clipPath4302"><rect
         style="fill:#28ffff;fill-opacity:1;stroke:#000000;stroke-width:1.29957879;stroke-opacity:1"
         id="rect4304"
         width="510.70041"
         height="510.70041"
         x="0.64978939"
         y="0.64979041" /></clipPath></defs><sodipodi:namedview
     pagecolor="#ffffff"
     bordercolor="#666666"
     borderopacity="1"
     objecttolerance="10"
     gridtolerance="10"
     guidetolerance="10"
     inkscape:pageopacity="0"
     inkscape:pageshadow="2"
     inkscape:window-width="1858"
     inkscape:window-height="1177"
     id="namedview3441"
     showgrid="false"
     inkscape:zoom="0.60009765"
     inkscape:cx="882.3546"
     inkscape:cy="163.31059"
     inkscape:window-x="-8"
     inkscape:window-y="-8"
     inkscape:window-maximized="1"
     inkscape:current-layer="Layer_1" /><g
     id="g4271"
     clip-path="url(#clipPath4302)"><g
       clip-path="url(#clipPath5006)"
       id="g3411" /><g
       clip-path="url(#clipPath5002)"
       id="g3413" /><g
       clip-path="url(#clipPath4998)"
       id="g3415" /><g
       clip-path="url(#clipPath4994)"
       id="g3417" /><g
       clip-path="url(#clipPath4990)"
       id="g3419" /><g
       clip-path="url(#clipPath4986)"
       id="g3421" /><g
       clip-path="url(#clipPath4982)"
       id="g3423" /><g
       clip-path="url(#clipPath4978)"
       id="g3425" /><g
       clip-path="url(#clipPath4974)"
       id="g3427" /><g
       clip-path="url(#clipPath4970)"
       id="g3429" /><g
       clip-path="url(#clipPath4966)"
       id="g3431" /><g
       clip-path="url(#clipPath4962)"
       id="g3433" /><g
       clip-path="url(#clipPath4958)"
       id="g3435" /><g
       clip-path="url(#clipPath4954)"
       id="g3437" /><g
       clip-path="url(#clipPath4950)"
       id="g3439" /><path
       id="path5676"
       d="M 272.59683,-0.26538525 194.06477,171.95731 l 48.223,52.35202 146.04264,-224.57471525 z m 0,0"
       inkscape:connector-curvature="0"
       style="fill:#f9eac7" /><path
       id="path5678"
       d="m 303.23622,-0.26538525 -30.63939,0 -78.53206,172.22269525 20.49205,22.2484 z m 0,0"
       inkscape:connector-curvature="0"
       style="fill:#f4dbb3" /><path
       id="path5680"
       d="m 156.86727,198.13332 77.82309,77.82308 c 3.1018,3.1018 7.30737,4.84204 11.69018,4.84204 l 84.08308,0 0,-16.53222 c 0,-9.13219 -7.40002,-16.53222 -16.53222,-16.53222 l -33.49547,0 c -4.95885,0 -9.65587,-2.22765 -12.79796,-6.06261 l -63.65146,-77.79892 c -3.09777,-3.78661 -8.78576,-4.07263 -12.24609,-0.6123 z m 0,0"
       inkscape:connector-curvature="0"
       style="fill:#f6d190" /><path
       sodipodi:nodetypes="csscsscsscscsc"
       id="path5682"
       d="m 512.33011,214.66554 -123.9997,0 c -9.13219,0 -16.53222,7.40405 -16.53222,16.53624 l 0,82.66513 -123.99968,0 c -9.1322,0 -16.53222,7.40002 -16.53222,16.53222 l 0,82.66512 -123.9997,0 c -9.132198,0 -16.532219,7.40405 -16.532219,16.53222 l 0,82.66511 140.531919,0 C 292.61366,512.26158 416.59503,512 512,512 c 0,-138.56858 0.33011,-186.92239 0.33011,-280.80224 z"
       inkscape:connector-curvature="0"
       style="fill:#dad8db" /><path
       id="path5684"
       d="m 330.46362,305.6008 0,-41.33458 -71.269,0 c -8.20569,0 -16.073,-3.2589 -21.87377,-9.05968 l -68.7634,-68.7634 -24.79832,24.79833 c -4.46741,4.46741 -5.76856,10.8402 -4.05249,16.49193 L 211.31,299.33677 c 9.36986,9.36986 21.82543,14.53014 35.07054,14.53014 l 75.81698,0 c 4.56408,0 8.2661,-3.70202 8.2661,-8.26611 z m 0,0"
       inkscape:connector-curvature="0"
       style="fill:#ecbd83" /><path
       id="path5686"
       d="m 512.33011,214.66554 -123.9997,0 c -9.13219,0 -16.53222,7.40405 -16.53222,16.53624 l 0,82.66513 -123.99968,0 c -9.1322,0 -16.53222,7.40002 -16.53222,16.53222 l 0,82.66512 -123.9997,0 c -9.132198,0 -16.532219,7.40405 -16.532219,16.53222 l 0,82.66511 24.798329,0 0,-74.39901 115.73359,0 c 13.69628,0 24.79832,-11.10204 24.79832,-24.79832 l 0,-74.39901 115.73358,0 c 13.69629,0 24.79834,-11.10205 24.79834,-24.79833 l 0,-74.39901 115.52411,0 c 0.23364,-8.00829 0.20947,-24.80236 0.20947,-24.80236 z m 0,0"
       inkscape:connector-curvature="0"
       style="fill:#c8c5c9" /><path
       id="path5688"
       d="m 330.46362,305.6008 0,-24.80236 -84.08308,0 c -4.38684,0 -8.5924,-1.74024 -11.69018,-4.84204 l -77.82309,-77.82308 -13.10814,13.10815 c -6.4574,6.45739 -6.4574,16.927 0,23.38036 l 64.71494,64.71494 c 9.30138,9.3054 21.91807,14.53014 35.07053,14.53014 l 78.65292,0 c 4.56811,0 8.2661,-3.70202 8.2661,-8.26611 z m 0,0"
       inkscape:connector-curvature="0"
       style="fill:#eceaec" /><path
       id="path5690"
       d="m 280.83072,165.04068 107.49969,-165.30606525 -115.73358,0 L 220.71612,113.51044 Z m 0,0"
       inkscape:connector-curvature="0"
       style="fill:#6f6571" /><path
       id="path5692"
       d="m 272.60086,-0.26538525 -0.004,0 -51.88071,113.77582525 22.02684,18.88073 60.49335,-132.65655525 z m 0,0"
       inkscape:connector-curvature="0"
       style="fill:#5d5360" /><path
       id="path5694"
       d="m 235.17779,81.799516 -14.46167,31.710924 60.1146,51.53024 18.52623,-28.48827 z m 0,0"
       inkscape:connector-curvature="0"
       style="fill:#857e87" /><path
       id="path5696"
       d="m 257.23282,100.61579 -22.05503,-18.816274 -14.46167,31.710924 22.02684,18.88073 z m 0,0"
       inkscape:connector-curvature="0"
       style="fill:#6f6571" /><path
       id="path5698"
       d="m 512.33011,206.93117 -123.9997,0 c -13.38207,0 -24.26659,10.88854 -24.26659,24.27061 l 0,74.93076 -25.86583,0 0,-41.86632 c 0,-13.38207 -10.88451,-24.26659 -24.26659,-24.26659 l -33.49949,0 c -2.64661,0 -5.13207,-1.17626 -6.80785,-3.22668 L 256.37077,215.68874 394.80393,3.9683776 c 2.34045,-3.5771467 1.33739,-8.366817 -2.23975,-10.7072707 -3.57312,-2.3364247 -8.36682,-1.3333731 -10.70727,2.239745 L 297.4153,124.64874 243.63725,78.943439 279.58999,3.045893 c 1.82483,-3.85912955 0.18127,-8.4715538 -3.68188,-10.3004109 -3.8551,-1.8248279 -8.47155,-0.181274 -10.30041,3.6818835 L 191.78474,152.27897 138.28867,205.77504 c -9.46252,9.46253 -9.46252,24.85473 0,34.31725 l 64.71494,64.71493 c 6.65075,6.65478 14.65099,11.46057 23.38438,14.18774 -1.8208,3.3999 -2.85607,7.2832 -2.85607,11.40417 l 0,74.93477 -116.26533,0 C 93.884516,405.3339 83,416.21842 83,429.60049 l 0,82.66513 c 0,4.27001 3.464354,7.73437 7.734371,7.73437 4.270017,0 7.734371,-3.46436 7.734371,-7.73437 l 0,-82.66513 c 0,-4.85412 3.947748,-8.80187 8.797848,-8.80187 l 123.9997,0 c 4.27001,0 7.73437,-3.46032 7.73437,-7.73035 l 0,-82.66914 c 0,-4.85009 3.94775,-8.79785 8.79785,-8.79785 l 123.99968,0 c 4.27003,0 7.73438,-3.46435 7.73438,-7.73437 l 0,-82.66513 c 0,-4.85412 3.94775,-8.79784 8.79784,-8.79784 l 123.9997,0 c 4.27002,0 7.73437,-3.46435 7.73437,-7.73438 0,-4.27404 -3.46435,-7.73839 -7.73437,-7.73839 z m -305.04843,-51.24021 14.65905,-30.94152 48.32773,41.4232 -24.16991,36.95982 z m 81.60164,-17.99047 -10.07885,15.41235 -49.99949,-42.85728 7.97607,-16.838373 z M 243.5446,306.13254 c -11.18261,0 -21.69653,-4.35461 -29.60411,-12.2622 L 149.22555,229.1554 c -3.43212,-3.43212 -3.43212,-9.01134 0,-12.44348 l 7.64172,-7.63769 72.35263,72.35263 c 4.58422,4.58422 10.67907,7.10998 17.16064,7.10998 l 34.4824,0 c 4.27405,0 7.73437,-3.46435 7.73437,-7.73437 0,-4.27404 -3.46032,-7.73437 -7.73437,-7.73437 l -34.4824,0 c -2.34852,0 -4.56006,-0.91845 -6.22376,-2.57812 l -72.35262,-72.35666 29.82163,-29.81761 64.0261,78.25411 c 4.62451,5.65576 11.47265,8.89855 18.78002,8.89855 l 33.49949,0 c 4.8501,0 8.79785,3.94776 8.79785,8.79785 l 0,8.80188 -8.80187,0 c -4.27404,0 -7.73437,3.46033 -7.73437,7.73437 0,4.27002 3.46033,7.73437 7.73437,7.73437 l 8.80187,0 0,17.5957 z m 0,0"
       inkscape:connector-curvature="0" /></g></svg>